<?xml version="1.0" encoding="UTF-8" standalone="no"?>
<!-- Generator: Adobe Illustrator 14.0.0, SVG Export Plug-In . SVG Version: 6.00 Build 43363)  -->

<svg
   xmlns:dc="http://purl.org/dc/elements/1.1/"
   xmlns:cc="http://creativecommons.org/ns#"
   xmlns:rdf="http://www.w3.org/1999/02/22-rdf-syntax-ns#"
   xmlns:svg="http://www.w3.org/2000/svg"
   xmlns="http://www.w3.org/2000/svg"
   xmlns:sodipodi="http://sodipodi.sourceforge.net/DTD/sodipodi-0.dtd"
   xmlns:inkscape="http://www.inkscape.org/namespaces/inkscape"
   version="1.0"
   id="Layer_1"
   x="0px"
   y="0px"
   width="504.28198"
   height="600"
   viewBox="0 0 504.282 600"
   enable-background="new 0 0 84.047 100"
   xml:space="preserve"
   inkscape:version="0.48.0 r9654"
   sodipodi:docname="big-head.svg"><title
   id="title3142">Mental Health</title><metadata
   id="metadata3051"><rdf:RDF><cc:Work
       rdf:about=""><dc:format>image/svg+xml</dc:format><dc:type
         rdf:resource="http://purl.org/dc/dcmitype/StillImage" /><dc:title>Mental Health</dc:title><dc:date>2004</dc:date><dc:creator><cc:Agent><dc:title>Jack Biesek, Gladys Brenner, Margaret Faye, Healther Merrifield, Kate Keating, Wendy Olmstead, Todd Pierce</dc:title></cc:Agent></dc:creator><dc:rights><cc:Agent><dc:title>Public Domain</dc:title></cc:Agent></dc:rights><dc:publisher><cc:Agent><dc:title>http://www.thenounproject.com/</dc:title></cc:Agent></dc:publisher><dc:identifier>562</dc:identifier><dc:source>http://www.thenounproject.com/noun/mental-health/</dc:source><dc:language>English</dc:language><dc:subject><rdf:Bag><rdf:li>mental</rdf:li><rdf:li>health</rdf:li><rdf:li>mental health</rdf:li><rdf:li>noun</rdf:li><rdf:li>nounproject</rdf:li></rdf:Bag></dc:subject><dc:contributor><cc:Agent><dc:title>Jack Biesek, Gladys Brenner, Margaret Faye, Healther Merrifield, Kate Keating, Wendy Olmstead, Todd Pierce, Glenn F Murray</dc:title></cc:Agent></dc:contributor><cc:license
         rdf:resource="http://creativecommons.org/licenses/publicdomain/" /><dc:description>Stylised profile of a human head, with three gears inside to represent mental health.</dc:description><dc:relation>http://www.thenounproject.com/category/healthcare-wellness/</dc:relation></cc:Work><cc:License
       rdf:about="http://creativecommons.org/licenses/publicdomain/"><cc:permits
         rdf:resource="http://creativecommons.org/ns#Reproduction" /><cc:permits
         rdf:resource="http://creativecommons.org/ns#Distribution" /><cc:permits
         rdf:resource="http://creativecommons.org/ns#DerivativeWorks" /></cc:License></rdf:RDF></metadata><defs
   id="defs3049" /><sodipodi:namedview
   pagecolor="#f2f2f2"
   bordercolor="#666666"
   borderopacity="1"
   objecttolerance="10"
   gridtolerance="10"
   guidetolerance="10"
   inkscape:pageopacity="0"
   inkscape:pageshadow="2"
   inkscape:window-width="1211"
   inkscape:window-height="935"
   id="namedview3047"
   showgrid="false"
   inkscape:zoom="1"
   inkscape:cx="316.94633"
   inkscape:cy="299.99999"
   inkscape:window-x="193"
   inkscape:window-y="18"
   inkscape:window-maximized="0"
   inkscape:current-layer="Layer_1"
   fit-margin-top="0"
   fit-margin-left="0"
   fit-margin-right="0"
   fit-margin-bottom="0" />
<path
   d="m 154.938,146.886 c 13.206,0 23.964,10.722 23.964,24.036 0,13.29 -10.758,24.006 -23.964,24.006 -13.248,0 -23.964,-10.716 -23.964,-24.006 0,-13.314 10.716,-24.036 23.964,-24.036 z"
   id="path3039"
   inkscape:connector-curvature="0" />
<path
   d="m 160.572,343.776 c 0,13.29 -10.8,24.03 -24.072,24.03 -13.206,0 -23.922,-10.74 -23.922,-24.03 0,-13.278 10.716,-24.018 23.922,-24.018 13.278,0 24.072,10.74 24.072,24.018 z"
   id="path3041"
   inkscape:connector-curvature="0" />
<path
   d="m 336.012,120.822 c 13.29,0 24.048,10.764 24.048,24.072 0,13.272 -10.758,24.012 -24.048,24.012 -13.314,0 -24.054,-10.746 -24.054,-24.012 0,-13.308 10.74,-24.072 24.054,-24.072 z"
   id="path3043"
   inkscape:connector-curvature="0" />
<path
   d="M 227.586,-1.7428864e-6 C 330.888,-1.7428864e-6 426.156,77.543998 445.956,163.002 c 4.482,18.996 9.39,68.61 9.39,68.61 l 47.568,119.772 c 0.912,2.154 1.368,4.584 1.368,7.134 0,10.098 -8.274,18.348 -18.414,18.348 h -30.522 v 63.63 c 0,49.62 -40.2,89.808 -89.754,89.808 H 329.916 V 600 H 87 V 406.764 C 34.02,365.088 0,300.348 0,227.712 0,101.934 101.922,-1.7428863e-6 227.586,-1.7428863e-6 z M 399.432,277.002 c 13.926,0 25.314,-11.382 25.314,-25.464 0,-13.998 -11.382,-25.362 -25.314,-25.362 -14.058,0 -25.5,11.364 -25.5,25.362 0,14.088 11.442,25.464 25.5,25.464 z m -335.97,-34.398 23.676,23.682 28.878,-20.388 c 5.562,2.904 11.406,5.208 17.502,6.762 l 5.328,31.416 h -11.028 l -2.946,16.794 c -1.158,0.312 -2.322,0.48 -3.462,0.894 -2.964,1.098 -5.7,2.508 -8.25,4.128 l -13.314,-9.354 -10.92,10.908 9.804,13.914 c -2.118,3.732 -3.774,7.71 -4.704,11.916 l -16.068,2.76 v 15.45 l 16.728,2.88 c 0.336,1.176 0.498,2.364 0.912,3.522 1.098,2.988 2.526,5.748 4.182,8.34 l -9.402,13.248 10.938,10.926 13.836,-9.828 c 3.75,2.118 7.71,3.774 11.94,4.704 l 2.82,16.092 h 15.444 l 2.784,-16.794 c 1.2,-0.336 2.4,-0.498 3.588,-0.936 2.964,-1.098 5.718,-2.508 8.292,-4.14 l 13.332,9.45 10.866,-10.944 -9.828,-13.89 c 2.118,-3.756 3.774,-7.71 4.704,-11.94 l 16.152,-2.802 V 333.99 l -16.878,-2.88 c -0.33,-1.182 -0.498,-2.37 -0.93,-3.546 -1.08,-2.946 -2.484,-5.682 -4.104,-8.256 l 9.408,-13.332 -10.902,-10.908 -13.914,9.828 c -3.726,-2.094 -7.686,-3.75 -11.892,-4.704 l -2.406,-13.956 h 29.088 l 6.078,-34.842 c 1.308,-0.414 2.616,-0.75 3.918,-1.248 4.686,-1.722 9.042,-3.876 13.206,-6.3 l 27.87,19.638 23.634,-23.706 -20.34,-28.782 c 2.922,-5.574 5.226,-11.442 6.798,-17.562 l 33.51,-5.766 v -27.516 l 16.872,2.91 c 0.27,0.81 0.336,1.638 0.642,2.424 1.104,2.988 2.532,5.724 4.086,8.376 l -12.936,18.33 15.576,15.528 18.99,-13.392 c 3.528,1.824 7.17,3.318 11.01,4.332 l 3.84,21.978 21.87,0.018 3.984,-22.932 c 0.768,-0.27 1.578,-0.33 2.346,-0.624 3.006,-1.122 5.784,-2.574 8.454,-4.146 l 18.39,12.96 15.51,-15.552 -13.452,-19.056 c 1.782,-3.486 3.168,-7.152 4.182,-10.932 l 22.128,-3.792 V 134.58 l -22.806,-3.918 c -0.252,-0.81 -0.438,-1.596 -0.726,-2.382 -1.104,-3.006 -2.556,-5.76 -4.11,-8.418 l 12.96,-18.33 -15.492,-15.534002 -19.074,13.416 c -3.528,-1.83 -7.194,-3.342 -11.052,-4.362 l -3.834,-21.996 h -21.876 l -3.99,22.944 c -0.792,0.252 -1.602,0.312 -2.364,0.6 -3.012,1.122 -5.766,2.58 -8.442,4.128002 l -18.33,-12.918002 -15.57,15.534002 13.476,19.032 c -1.83,3.504 -3.318,7.152 -4.314,10.992 l -21.978,3.774 v 15.99 l -28.782,-4.938 c -0.414,-1.308 -0.744,-2.61 -1.242,-3.918 -1.722,-4.71 -3.9,-9.126 -6.372,-13.314 L 244.74,103.2 220.956,79.469998 l -28.842,20.388 c -5.58,-2.91 -11.448,-5.208 -17.568,-6.786 l -5.658,-33.528 h -33.522 l -6.078,34.812 c -1.308,0.39 -2.616,0.75 -3.918,1.224 -4.662,1.722 -9.042,3.9 -13.182,6.330002 L 84.306,82.271998 60.708,105.954 l 20.34,28.884 c -2.88,5.532 -5.178,11.382 -6.756,17.46 l -33.576,5.784 v 33.534 l 34.836,5.994 c 0.414,1.308 0.75,2.616 1.224,3.9 1.74,4.686 3.918,9.06 6.372,13.23 l -19.686,27.864 z"
   id="path3045"
   inkscape:connector-curvature="0" />
</svg>